<svg width="302" height="285" viewBox="0 0 302 285" fill="none" xmlns="http://www.w3.org/2000/svg">
<path d="M134.931 10.8408C141.586 -2.3459 160.414 -2.34593 167.069 10.8408L199.961 76.013C202.613 81.2691 207.669 84.8957 213.498 85.724L286.371 96.0791C301.26 98.1947 307.144 116.553 296.258 126.929L244.045 176.7C239.688 180.853 237.695 186.91 238.735 192.838L251.131 263.515C253.701 278.165 238.4 289.433 225.172 282.633L159.23 248.731C154.065 246.076 147.935 246.076 142.77 248.731L76.8284 282.633C63.6 289.433 48.2994 278.165 50.869 263.515L63.2649 192.838C64.3047 186.909 62.3121 180.853 57.955 176.7L5.7415 126.929C-5.14378 116.553 0.739937 98.1947 15.6287 96.0791L88.5021 85.724C94.3311 84.8957 99.3866 81.2691 102.039 76.013L134.931 10.8408Z" fill="black"/>
</svg>
